<mxfile host="Electron" modified="2023-04-05T13:45:29.215Z" agent="Mozilla/5.0 (Windows NT 10.0; Win64; x64) AppleWebKit/537.36 (KHTML, like Gecko) draw.io/21.1.2 Chrome/106.0.5249.199 Electron/21.4.3 Safari/537.36" etag="I9gp0bF0Xy9Vb-HU0IIw" version="21.1.2" type="device">
  <diagram name="Page-1" id="KBbJDJjWDzGwug0KF9Dm">
    <mxGraphModel dx="2237" dy="2012" grid="1" gridSize="10" guides="1" tooltips="1" connect="1" arrows="1" fold="1" page="1" pageScale="1" pageWidth="827" pageHeight="1169" math="0" shadow="0">
      <root>
        <mxCell id="0" />
        <mxCell id="1" parent="0" />
        <mxCell id="lyB78FKVTqBPmmSMDDMU-1" value="references" style="edgeStyle=orthogonalEdgeStyle;rounded=0;orthogonalLoop=1;jettySize=auto;html=1;exitX=0.5;exitY=0;exitDx=0;exitDy=0;labelPosition=right;verticalLabelPosition=top;align=left;verticalAlign=bottom;endArrow=none;endFill=0;startArrow=classic;startFill=1;" parent="1" source="lyB78FKVTqBPmmSMDDMU-2" target="lyB78FKVTqBPmmSMDDMU-17" edge="1">
          <mxGeometry relative="1" as="geometry" />
        </mxCell>
        <mxCell id="lyB78FKVTqBPmmSMDDMU-2" value="Transformations" style="swimlane;whiteSpace=wrap;html=1;" parent="1" vertex="1">
          <mxGeometry x="100" y="54" width="510" height="190" as="geometry" />
        </mxCell>
        <mxCell id="lyB78FKVTqBPmmSMDDMU-3" value="«interface»&lt;br&gt;&lt;b&gt;TableTransformation&lt;/b&gt;" style="html=1;" parent="lyB78FKVTqBPmmSMDDMU-2" vertex="1">
          <mxGeometry x="370" y="77" width="125" height="50" as="geometry" />
        </mxCell>
        <mxCell id="lyB78FKVTqBPmmSMDDMU-4" value="implements" style="edgeStyle=orthogonalEdgeStyle;rounded=0;orthogonalLoop=1;jettySize=auto;html=1;exitX=1.002;exitY=0.042;exitDx=0;exitDy=0;labelPosition=right;verticalLabelPosition=top;align=left;verticalAlign=bottom;exitPerimeter=0;spacing=14;" parent="lyB78FKVTqBPmmSMDDMU-2" source="lyB78FKVTqBPmmSMDDMU-7" target="lyB78FKVTqBPmmSMDDMU-3" edge="1">
          <mxGeometry relative="1" as="geometry">
            <Array as="points">
              <mxPoint x="340" y="57" />
              <mxPoint x="340" y="102" />
            </Array>
          </mxGeometry>
        </mxCell>
        <mxCell id="lyB78FKVTqBPmmSMDDMU-5" value="" style="edgeStyle=orthogonalEdgeStyle;rounded=0;orthogonalLoop=1;jettySize=auto;html=1;entryX=0.5;entryY=0;entryDx=0;entryDy=0;" parent="lyB78FKVTqBPmmSMDDMU-2" source="lyB78FKVTqBPmmSMDDMU-6" target="lyB78FKVTqBPmmSMDDMU-9" edge="1">
          <mxGeometry relative="1" as="geometry" />
        </mxCell>
        <mxCell id="lyB78FKVTqBPmmSMDDMU-6" value="FilterTransformation" style="swimlane;fontStyle=1;childLayout=stackLayout;horizontal=1;startSize=26;fillColor=none;horizontalStack=0;resizeParent=1;resizeParentMax=0;resizeLast=0;collapsible=1;marginBottom=0;" parent="lyB78FKVTqBPmmSMDDMU-2" vertex="1">
          <mxGeometry x="10" y="30" width="310" height="58" as="geometry" />
        </mxCell>
        <mxCell id="lyB78FKVTqBPmmSMDDMU-7" value="+ filter : FieldComparison = F(&quot;duration&quot;) &lt; 20" style="text;strokeColor=none;fillColor=none;align=left;verticalAlign=top;spacingLeft=4;spacingRight=4;overflow=hidden;rotatable=0;points=[[0,0.5],[1,0.5]];portConstraint=eastwest;" parent="lyB78FKVTqBPmmSMDDMU-6" vertex="1">
          <mxGeometry y="26" width="310" height="32" as="geometry" />
        </mxCell>
        <mxCell id="lyB78FKVTqBPmmSMDDMU-8" value="implements" style="edgeStyle=orthogonalEdgeStyle;rounded=0;orthogonalLoop=1;jettySize=auto;html=1;entryX=0;entryY=0.5;entryDx=0;entryDy=0;labelPosition=right;verticalLabelPosition=bottom;align=left;verticalAlign=top;spacing=13;" parent="lyB78FKVTqBPmmSMDDMU-2" source="lyB78FKVTqBPmmSMDDMU-9" target="lyB78FKVTqBPmmSMDDMU-3" edge="1">
          <mxGeometry relative="1" as="geometry">
            <Array as="points">
              <mxPoint x="340" y="153" />
              <mxPoint x="340" y="102" />
            </Array>
          </mxGeometry>
        </mxCell>
        <mxCell id="lyB78FKVTqBPmmSMDDMU-9" value="SelectTransformation" style="swimlane;fontStyle=1;childLayout=stackLayout;horizontal=1;startSize=26;fillColor=none;horizontalStack=0;resizeParent=1;resizeParentMax=0;resizeLast=0;collapsible=1;marginBottom=0;" parent="lyB78FKVTqBPmmSMDDMU-2" vertex="1">
          <mxGeometry x="10" y="127" width="310" height="52" as="geometry" />
        </mxCell>
        <mxCell id="lyB78FKVTqBPmmSMDDMU-10" value="+ selectColumns : NamedFieldComparison[] = [F(&quot;id&quot;)]" style="text;strokeColor=none;fillColor=none;align=left;verticalAlign=top;spacingLeft=4;spacingRight=4;overflow=hidden;rotatable=0;points=[[0,0.5],[1,0.5]];portConstraint=eastwest;" parent="lyB78FKVTqBPmmSMDDMU-9" vertex="1">
          <mxGeometry y="26" width="310" height="26" as="geometry" />
        </mxCell>
        <mxCell id="lyB78FKVTqBPmmSMDDMU-11" value="«interface»&lt;br&gt;&lt;b&gt;DataSource&lt;/b&gt;" style="html=1;" parent="1" vertex="1">
          <mxGeometry x="-47.5" y="190" width="110" height="50" as="geometry" />
        </mxCell>
        <mxCell id="lyB78FKVTqBPmmSMDDMU-12" value="references" style="edgeStyle=orthogonalEdgeStyle;rounded=0;orthogonalLoop=1;jettySize=auto;html=1;exitX=0.5;exitY=0;exitDx=0;exitDy=0;labelPosition=left;verticalLabelPosition=top;align=right;verticalAlign=bottom;endArrow=none;endFill=0;startArrow=classic;startFill=1;" parent="1" source="lyB78FKVTqBPmmSMDDMU-13" target="lyB78FKVTqBPmmSMDDMU-17" edge="1">
          <mxGeometry relative="1" as="geometry" />
        </mxCell>
        <mxCell id="lyB78FKVTqBPmmSMDDMU-13" value="CassandraDataSource" style="swimlane;fontStyle=1;childLayout=stackLayout;horizontal=1;startSize=26;fillColor=none;horizontalStack=0;resizeParent=1;resizeParentMax=0;resizeLast=0;collapsible=1;marginBottom=0;" parent="1" vertex="1">
          <mxGeometry x="-75" y="54" width="165" height="78" as="geometry" />
        </mxCell>
        <mxCell id="lyB78FKVTqBPmmSMDDMU-14" value="+ keyspace : String = &quot;data&quot;" style="text;strokeColor=none;fillColor=none;align=left;verticalAlign=top;spacingLeft=4;spacingRight=4;overflow=hidden;rotatable=0;points=[[0,0.5],[1,0.5]];portConstraint=eastwest;" parent="lyB78FKVTqBPmmSMDDMU-13" vertex="1">
          <mxGeometry y="26" width="165" height="26" as="geometry" />
        </mxCell>
        <mxCell id="lyB78FKVTqBPmmSMDDMU-15" value="+ table :String = &quot;origination&quot;" style="text;strokeColor=none;fillColor=none;align=left;verticalAlign=top;spacingLeft=4;spacingRight=4;overflow=hidden;rotatable=0;points=[[0,0.5],[1,0.5]];portConstraint=eastwest;" parent="lyB78FKVTqBPmmSMDDMU-13" vertex="1">
          <mxGeometry y="52" width="165" height="26" as="geometry" />
        </mxCell>
        <mxCell id="lyB78FKVTqBPmmSMDDMU-16" value="implements" style="edgeStyle=orthogonalEdgeStyle;rounded=0;orthogonalLoop=1;jettySize=auto;html=1;labelPosition=right;verticalLabelPosition=middle;align=left;verticalAlign=middle;spacing=4;" parent="1" source="lyB78FKVTqBPmmSMDDMU-13" target="lyB78FKVTqBPmmSMDDMU-11" edge="1">
          <mxGeometry relative="1" as="geometry">
            <mxPoint x="-35" y="210" as="sourcePoint" />
          </mxGeometry>
        </mxCell>
        <mxCell id="lyB78FKVTqBPmmSMDDMU-17" value="Dependent Table" style="swimlane;fontStyle=1;childLayout=stackLayout;horizontal=1;startSize=26;fillColor=none;horizontalStack=0;resizeParent=1;resizeParentMax=0;resizeLast=0;collapsible=1;marginBottom=0;" parent="1" vertex="1">
          <mxGeometry x="70" y="-90" width="230" height="78" as="geometry" />
        </mxCell>
        <mxCell id="lyB78FKVTqBPmmSMDDMU-18" value="+ dataSource : DataSource" style="text;strokeColor=none;fillColor=none;align=left;verticalAlign=top;spacingLeft=4;spacingRight=4;overflow=hidden;rotatable=0;points=[[0,0.5],[1,0.5]];portConstraint=eastwest;" parent="lyB78FKVTqBPmmSMDDMU-17" vertex="1">
          <mxGeometry y="26" width="230" height="26" as="geometry" />
        </mxCell>
        <mxCell id="lyB78FKVTqBPmmSMDDMU-19" value="+ transformations : TableTransformation[]" style="text;strokeColor=none;fillColor=none;align=left;verticalAlign=top;spacingLeft=4;spacingRight=4;overflow=hidden;rotatable=0;points=[[0,0.5],[1,0.5]];portConstraint=eastwest;" parent="lyB78FKVTqBPmmSMDDMU-17" vertex="1">
          <mxGeometry y="52" width="230" height="26" as="geometry" />
        </mxCell>
        <mxCell id="lyB78FKVTqBPmmSMDDMU-28" value="references" style="edgeStyle=orthogonalEdgeStyle;rounded=0;orthogonalLoop=1;jettySize=auto;html=1;entryX=0.5;entryY=0;entryDx=0;entryDy=0;labelPosition=right;verticalLabelPosition=middle;align=left;verticalAlign=middle;spacing=4;" parent="1" source="lyB78FKVTqBPmmSMDDMU-20" target="lyB78FKVTqBPmmSMDDMU-17" edge="1">
          <mxGeometry relative="1" as="geometry">
            <mxPoint as="offset" />
          </mxGeometry>
        </mxCell>
        <mxCell id="lyB78FKVTqBPmmSMDDMU-20" value="GroupByDataSource" style="swimlane;fontStyle=1;childLayout=stackLayout;horizontal=1;startSize=26;fillColor=none;horizontalStack=0;resizeParent=1;resizeParentMax=0;resizeLast=0;collapsible=1;marginBottom=0;" parent="1" vertex="1">
          <mxGeometry x="17.5" y="-240" width="335" height="104" as="geometry" />
        </mxCell>
        <mxCell id="lyB78FKVTqBPmmSMDDMU-21" value="+ source : Dependent Table" style="text;strokeColor=none;fillColor=none;align=left;verticalAlign=top;spacingLeft=4;spacingRight=4;overflow=hidden;rotatable=0;points=[[0,0.5],[1,0.5]];portConstraint=eastwest;" parent="lyB78FKVTqBPmmSMDDMU-20" vertex="1">
          <mxGeometry y="26" width="335" height="26" as="geometry" />
        </mxCell>
        <mxCell id="lyB78FKVTqBPmmSMDDMU-22" value="+ uniqueFields : NamedFieldExpression[] = [F(&quot;duration&quot;)]" style="text;strokeColor=none;fillColor=none;align=left;verticalAlign=top;spacingLeft=4;spacingRight=4;overflow=hidden;rotatable=0;points=[[0,0.5],[1,0.5]];portConstraint=eastwest;" parent="lyB78FKVTqBPmmSMDDMU-20" vertex="1">
          <mxGeometry y="52" width="335" height="26" as="geometry" />
        </mxCell>
        <mxCell id="lyB78FKVTqBPmmSMDDMU-27" value="+ aggregates : AggregateExpression[] = [Max(F(&quot;amount&quot;))]" style="text;strokeColor=none;fillColor=none;align=left;verticalAlign=top;spacingLeft=4;spacingRight=4;overflow=hidden;rotatable=0;points=[[0,0.5],[1,0.5]];portConstraint=eastwest;" parent="lyB78FKVTqBPmmSMDDMU-20" vertex="1">
          <mxGeometry y="78" width="335" height="26" as="geometry" />
        </mxCell>
        <mxCell id="lyB78FKVTqBPmmSMDDMU-23" value="Output Table" style="swimlane;fontStyle=1;childLayout=stackLayout;horizontal=1;startSize=26;fillColor=none;horizontalStack=0;resizeParent=1;resizeParentMax=0;resizeLast=0;collapsible=1;marginBottom=0;" parent="1" vertex="1">
          <mxGeometry x="430" y="-240" width="270" height="78" as="geometry" />
        </mxCell>
        <mxCell id="lyB78FKVTqBPmmSMDDMU-24" value="+ dataSource : DataSource" style="text;strokeColor=none;fillColor=none;align=left;verticalAlign=top;spacingLeft=4;spacingRight=4;overflow=hidden;rotatable=0;points=[[0,0.5],[1,0.5]];portConstraint=eastwest;" parent="lyB78FKVTqBPmmSMDDMU-23" vertex="1">
          <mxGeometry y="26" width="270" height="26" as="geometry" />
        </mxCell>
        <mxCell id="lyB78FKVTqBPmmSMDDMU-25" value="+ transformations : TableTransformation[] = []" style="text;strokeColor=none;fillColor=none;align=left;verticalAlign=top;spacingLeft=4;spacingRight=4;overflow=hidden;rotatable=0;points=[[0,0.5],[1,0.5]];portConstraint=eastwest;" parent="lyB78FKVTqBPmmSMDDMU-23" vertex="1">
          <mxGeometry y="52" width="270" height="26" as="geometry" />
        </mxCell>
        <mxCell id="lyB78FKVTqBPmmSMDDMU-26" value="references" style="edgeStyle=orthogonalEdgeStyle;rounded=0;orthogonalLoop=1;jettySize=auto;html=1;exitX=0;exitY=0.5;exitDx=0;exitDy=0;entryX=1;entryY=0.5;entryDx=0;entryDy=0;labelPosition=center;verticalLabelPosition=top;align=center;verticalAlign=bottom;" parent="1" source="lyB78FKVTqBPmmSMDDMU-24" target="lyB78FKVTqBPmmSMDDMU-21" edge="1">
          <mxGeometry relative="1" as="geometry" />
        </mxCell>
      </root>
    </mxGraphModel>
  </diagram>
</mxfile>
